<svg width="266" height="84" viewBox="0 0 266 84" fill="none" xmlns="http://www.w3.org/2000/svg">
<path d="M103.119 58.3214V78.4715H99.6256V63.4267L94.6151 76.7175H91.0934L86.0829 63.4267V78.4715H82.5898V58.3214H87.4858L92.8542 72.6533L98.2226 58.3214H103.119Z" fill="#040102"/>
<path d="M113.999 58.3214H116.719L124.778 78.4715H120.856L119.238 74.0936H111.493L109.861 78.4715H105.896L113.999 58.3214ZM118.093 70.999L115.373 63.6406L112.639 70.999H118.093Z" fill="#040102"/>
<path d="M133.239 78.6997C132.008 78.6997 130.839 78.4763 129.732 78.0295C128.634 77.5826 127.703 76.9171 126.94 76.033C126.186 75.1393 125.704 74.0555 125.494 72.7816L129.102 71.8689C129.226 73.0668 129.67 73.97 130.433 74.5784C131.206 75.1869 132.16 75.4911 133.296 75.4911C133.993 75.4911 134.594 75.3818 135.1 75.1631C135.606 74.9349 135.988 74.626 136.245 74.2362C136.503 73.8464 136.632 73.4091 136.632 72.9242C136.632 72.3443 136.45 71.8499 136.088 71.4411C135.735 71.0323 135.291 70.6948 134.756 70.4286C134.222 70.1624 133.487 69.8439 132.552 69.4732C131.33 68.9883 130.342 68.5415 129.588 68.1327C128.834 67.7144 128.185 67.1344 127.641 66.3929C127.107 65.6513 126.84 64.7149 126.84 63.5836C126.84 62.4332 127.121 61.4397 127.684 60.6031C128.257 59.757 129.021 59.1153 129.975 58.678C130.939 58.2406 131.998 58.022 133.153 58.022C134.451 58.022 135.634 58.3167 136.703 58.9061C137.772 59.4861 138.641 60.3702 139.309 61.5586L136.288 63.3982C135.935 62.7137 135.472 62.186 134.9 61.8153C134.327 61.435 133.702 61.2448 133.024 61.2448C132.547 61.2448 132.113 61.3352 131.721 61.5158C131.34 61.6964 131.034 61.9531 130.805 62.2859C130.586 62.6091 130.476 62.9799 130.476 63.3982C130.476 63.9116 130.643 64.3489 130.977 64.7102C131.311 65.0714 131.731 65.3756 132.237 65.6228C132.752 65.87 133.454 66.1647 134.341 66.507C135.601 66.9918 136.622 67.4482 137.405 67.876C138.187 68.3038 138.86 68.9027 139.423 69.6728C139.986 70.4429 140.268 71.4173 140.268 72.5962C140.268 73.8321 139.953 74.9112 139.323 75.8333C138.703 76.7555 137.858 77.4638 136.789 77.9582C135.72 78.4525 134.537 78.6997 133.239 78.6997Z" fill="#040102"/>
<path d="M147.712 61.5586H141.37V58.3214H157.676V61.5586H151.348V78.4715H147.712V61.5586Z" fill="#040102"/>
<path d="M160.582 58.3214H174.039V61.6441H164.218V66.7351H173.366V70.0578H164.218V75.049H174.039V78.4715H160.582V58.3214Z" fill="#040102"/>
<path d="M178.419 58.3214H184.962C186.24 58.3214 187.41 58.5591 188.469 59.0345C189.538 59.5003 190.387 60.1848 191.017 61.088C191.647 61.9816 191.962 63.0369 191.962 64.2538C191.962 65.0809 191.795 65.8462 191.461 66.5498C191.127 67.2438 190.659 67.8427 190.058 68.3466C189.466 68.8505 188.784 69.2355 188.011 69.5017L193.637 78.4715H189.471L184.489 69.8582H182.056V78.4715H178.419V58.3214ZM185.291 66.9063C186.255 66.8682 187.009 66.6163 187.553 66.1505C188.097 65.6846 188.369 65.0714 188.369 64.3109C188.369 63.4742 188.063 62.8087 187.453 62.3144C186.842 61.8105 186.021 61.5586 184.99 61.5586H182.084V66.9063H185.291Z" fill="#040102"/>
<path d="M22.9796 3.36087C22.9796 3.36087 25.0739 6.49135 25.316 6.65905C25.5581 6.82506 25.7037 7.18927 25.7037 7.18927L25.7139 8.13113C25.7139 8.13113 25.3126 9.52528 25.3702 9.74719C25.4278 9.9691 26.1287 11.4513 26.6451 11.7444C27.1615 12.0375 25.8629 13.0979 25.8629 13.0979L25.6411 13.5705C25.6411 13.5705 25.7732 14.6157 25.8968 14.7173C26.0204 14.819 26.0932 15.2272 26.0932 15.2272L25.5632 15.6152C25.5632 15.6152 25.8561 15.9285 25.8494 16.269C25.8426 16.6095 25.741 17.1465 25.741 17.1465L25.8798 17.8512C25.8798 17.8512 31.2079 19.6316 32.4896 20.0432C33.7713 20.4549 35.7911 21.517 35.7911 21.517C35.7911 21.517 36.7799 22.0303 38.4187 23.0517C40.0576 24.0732 40.1829 24.2121 40.9008 24.6373C41.6187 25.0625 43.9991 26.3567 45.2706 27.4866C46.5421 28.6165 49.6134 31.6961 50.575 32.3263C51.5367 32.9565 54.9212 36.1581 55.016 36.3766C55.1108 36.5952 54.7806 37.5302 54.7806 37.5302C54.7806 37.5302 60.4998 37.3879 62.0879 37.4337C63.676 37.4777 63.6964 37.288 65.0948 37.3117C66.4933 37.3354 66.8624 37.2643 67.9748 37.4659C69.0871 37.6674 69.2361 37.6539 70.3281 37.6302C71.4202 37.6065 73.4197 37.6132 73.4197 37.6132C73.4197 37.6132 73.9699 37.0356 74.8893 37.1779C75.8086 37.3202 75.8069 37.3202 76.2353 37.4709C76.6636 37.62 77.5339 37.6556 77.5339 37.6556L78.8596 37.3083C78.8596 37.3083 81.604 37.2101 82.161 37.122C82.7181 37.0339 84.0861 36.3055 84.831 36.6155C85.576 36.9255 86.2938 36.9356 86.2938 36.9356L90.0034 36.2597L96.6555 35.5805C96.6555 35.5805 98.743 34.4844 100.29 34.0813C101.838 33.6764 103.939 32.7312 103.939 32.7312C103.939 32.7312 110.611 29.3703 111.214 30.5984C111.815 31.8266 113.083 36.6544 113.083 36.6544C113.083 36.6544 115.791 36.5596 116.375 36.3563C116.959 36.153 118.081 36.0497 118.081 36.0497L118.632 35.8871C118.632 35.8871 122.614 32.8091 123.105 32.3873C123.594 31.9655 124.298 31.8266 124.298 31.8266C124.298 31.8266 125.399 31.3912 125.768 31.5098C126.137 31.6284 126.264 31.8096 126.264 31.8096C126.264 31.8096 126.633 31.9147 126.819 32.2975C127.006 32.6804 127.156 32.516 127.378 32.9785C127.6 33.4426 127.53 33.7526 127.53 33.7526C127.53 33.7526 128.038 34.4794 127.998 35.5618C127.957 36.6426 127.388 37.205 126.948 37.3845C126.508 37.5641 126.262 37.5844 125.888 38.0333C125.514 38.4823 124.808 39.0701 124.342 39.2513C123.875 39.4326 123.387 40.4439 123.003 41.0724C122.619 41.7008 121.325 41.5975 119.512 41.0995C117.7 40.6014 116.834 41.8668 116.114 41.8499C115.394 41.833 113.654 41.5213 113.654 41.5213C113.654 41.5213 113.805 43.4897 113.309 44.1774C112.812 44.8652 111.78 44.8957 111.78 44.8957C111.78 44.8957 109.616 43.8691 108.751 43.9267C107.886 43.9843 107.576 43.9911 106.607 44.2655C105.639 44.5399 105.72 44.7602 104.582 44.7805C103.445 44.8008 102.095 44.9855 102.095 44.9855C102.095 44.9855 98.0269 47.0928 95.5245 47.8178C93.0221 48.5428 84.848 48.8291 79.8652 50.9805C74.8825 53.1318 62.9209 55.9574 61.3498 55.976C59.7769 55.9947 59.2402 56.0014 58.4377 56.2826C57.6352 56.5621 56.8885 57.0043 56.8885 57.0043L55.126 58.1172C55.126 58.1172 55.1294 60.8937 54.8162 61.5442C54.503 62.1946 53.4566 64.3613 53.4566 64.3613C53.4566 64.3613 53.1874 65.049 53.2806 65.1642C53.3737 65.2794 55.7304 68.4234 55.7406 68.5454C55.7508 68.6674 61.475 76.0633 61.475 76.0633C61.475 76.0633 63.3493 76.1836 63.7912 76.0193C64.2331 75.8549 66.9098 73.8713 67.7834 73.917C68.6571 73.9628 69.5646 75.2892 69.8372 76.0091C70.1097 76.729 70.0877 77.8505 70.274 78.0825C70.4602 78.3146 71.107 78.5873 71.3762 78.8109C71.6454 79.0345 72.0889 79.824 72.0889 79.824C72.0889 79.824 72.7459 79.7647 72.8999 80.0814C73.0523 80.3982 73.9276 80.4439 74.0986 80.9674C74.2696 81.4908 74.0986 82.3344 73.8548 82.3988C73.611 82.4632 73.1336 83.1272 72.5969 83.134C72.0585 83.1408 68.889 82.4344 68.2727 82.4903C67.6565 82.5462 65.0915 82.1159 64.1907 81.7839C63.29 81.4519 62.6975 81.2977 62.4503 81.3197C62.2031 81.3418 61.1838 81.5179 61.1838 81.5179L60.5151 81.9109C60.5151 81.9109 54.1373 82.8223 52.1902 83.2881C50.2449 83.7557 48.3656 84.0504 47.1601 83.9928C45.9546 83.9369 42.3687 83.6812 42.3687 83.6812C42.3687 83.6812 37.6789 83.5676 36.0163 83.5117C34.3537 83.4558 32.1848 83.2797 32.1848 83.2797C32.1848 83.2797 27.1361 83.7794 25.6868 81.0521C24.2375 78.3248 23.2826 76.0074 24.0005 74.327C24.7184 72.6465 26.4504 70.2919 26.7094 69.9379C26.9668 69.5821 28.7564 66.9344 28.7564 66.9344C28.7564 66.9344 24.842 68.5335 20.4789 77.0509L17.0504 74.8758C17.0504 74.8758 21.742 67.2393 28.5955 61.5204C28.5955 61.5204 28.5244 60.2838 28.6886 59.8129C28.6886 59.8129 26.0373 57.9817 25.9814 57.8208C25.9255 57.6599 25.956 57.5328 25.824 57.4617C25.6936 57.3905 20.7837 53.9416 20.2148 53.6197C19.6476 53.2978 18.4743 52.6999 18.4743 52.6999L17.5516 52.1205C17.5516 52.1205 17.4805 50.8839 16.9505 50.518C16.4206 50.1521 15.9466 49.9454 15.9466 49.9454C15.9466 49.9454 15.1474 51.1787 15.0391 51.3531C14.9307 51.5293 14.6734 51.8834 14.5125 51.9393C14.3517 51.9952 14.3923 51.9918 14.0757 52.1442C13.7591 52.2967 13.0666 52.4424 13.0666 52.4424C13.0666 52.4424 12.5519 52.2408 11.8002 52.1849C11.0485 52.129 9.91412 51.941 9.43329 51.6547C8.95246 51.3684 5.88968 47.2944 5.50536 46.7065C5.12103 46.1187 3.38901 42.5478 3.38901 42.5478C3.38901 42.5478 2.27327 40.7437 2.01931 39.7714C1.76535 38.799 0.554803 33.6459 0.195871 31.5251C-0.163061 29.4042 -0.213854 25.1811 1.69424 23.8479C3.60234 22.5148 5.47827 21.722 6.27232 21.3611C7.06637 21.0003 7.31017 20.4803 7.71313 20.36C8.11608 20.2397 8.69172 20.1889 8.80685 20.0957C8.92198 20.0026 9.31816 19.801 9.37065 19.4639C9.42313 19.1268 9.81254 17.0212 9.94629 16.6773C10.08 16.3334 10.1749 15.9929 10.1749 15.9929L10.7454 15.8997C10.7454 15.8997 9.43498 12.8692 9.05066 12.2831C8.66633 11.697 7.34065 8.50211 8.91352 5.74769C10.4864 2.99327 11.4497 1.70245 11.9238 1.45174C12.3979 1.20104 12.794 0.999451 13.3646 0.906282C13.9352 0.813113 14.7834 0.570873 14.7834 0.570873C14.7834 0.570873 15.8619 0.140601 16.1616 0.238852C16.4612 0.337103 16.7897 0.306611 16.7897 0.306611L17.88 0C17.88 0 18.6758 0.0931692 18.9264 0.111803C19.1769 0.130437 19.1685 0.0491256 19.7898 0.0338797C20.4112 0.0186338 20.6753 0.201584 20.6753 0.201584L21.0156 0.294753L21.7403 0.518359C21.7403 0.518359 22.0687 0.487868 22.5428 0.694534C23.0168 0.899506 23.1811 0.885954 23.3351 1.20273C23.4875 1.5195 23.6009 1.38568 23.6822 1.83459C23.7635 2.28349 23.6704 2.62229 23.6704 2.62229L22.9796 3.36087Z" fill="#24A4DA"/>
<path d="M216.73 58V78H213.373V63.0672L208.557 76.259H205.173L200.357 63.0672V78H197V58H201.705L206.865 72.2251L212.025 58H216.73Z" fill="#040102"/>
<path d="M221.738 58H225.233V78H221.738V58Z" fill="#040102"/>
<path d="M245.238 58V78H241.743L233.598 63.9448V78H230.241V58H233.708L241.881 71.9844V58H245.238Z" fill="#040102"/>
<path d="M250.246 58H255.887C258.08 58 259.928 58.3963 261.432 59.189C262.946 59.9722 264.083 61.1187 264.844 62.6284C265.615 64.1382 266 65.9783 266 68.1486C266 70.2246 265.606 71.9986 264.817 73.4706C264.037 74.9427 262.891 76.0656 261.377 76.8393C259.864 77.6131 258.025 78 255.86 78H250.246V58ZM255.516 74.7021C257.781 74.7021 259.51 74.1831 260.703 73.1451C261.904 72.1071 262.505 70.3897 262.505 67.9929C262.505 66.3982 262.281 65.1149 261.831 64.143C261.382 63.1616 260.671 62.4444 259.699 61.9915C258.726 61.5291 257.437 61.2979 255.832 61.2979H253.741V74.7021H255.516Z" fill="#040102"/>
</svg>
